<svg xmlns="http://www.w3.org/2000/svg" xmlns:xlink="http://www.w3.org/1999/xlink" width="500" zoomAndPan="magnify" viewBox="0 0 375 374.999991" height="500" preserveAspectRatio="xMidYMid meet" version="1.0"><defs><g/><clipPath id="f829fa04a7"><path d="M 33.136719 25.476562 L 333.136719 25.476562 L 333.136719 325.476562 L 33.136719 325.476562 Z M 33.136719 25.476562 " clip-rule="nonzero"/></clipPath><clipPath id="abb660b1db"><path d="M 183.136719 25.476562 C 100.292969 25.476562 33.136719 92.632812 33.136719 175.476562 C 33.136719 258.320312 100.292969 325.476562 183.136719 325.476562 C 265.976562 325.476562 333.136719 258.320312 333.136719 175.476562 C 333.136719 92.632812 265.976562 25.476562 183.136719 25.476562 Z M 183.136719 25.476562 " clip-rule="nonzero"/></clipPath><clipPath id="cd1f6fb0bb"><path d="M 76.941406 213.894531 L 108.703125 213.894531 L 108.703125 315.21875 L 76.941406 315.21875 Z M 76.941406 213.894531 " clip-rule="nonzero"/></clipPath><clipPath id="9a319248e6"><path d="M 283.59375 213.894531 L 337.5 213.894531 L 337.5 239.515625 L 283.59375 239.515625 Z M 283.59375 213.894531 " clip-rule="nonzero"/></clipPath></defs><rect x="-37.5" width="450" fill="#ffffff" y="-37.499999" height="449.999989" fill-opacity="1"/><rect x="-37.5" width="450" fill="#272727" y="-37.499999" height="449.999989" fill-opacity="1"/><g clip-path="url(#f829fa04a7)"><g clip-path="url(#abb660b1db)"><path fill="#272727" d="M 33.136719 25.476562 L 333.136719 25.476562 L 333.136719 325.476562 L 33.136719 325.476562 Z M 33.136719 25.476562 " fill-opacity="1" fill-rule="nonzero"/></g></g><g clip-path="url(#cd1f6fb0bb)"><path fill="#ffffff" d="M 76.941406 213.894531 L 108.703125 213.894531 L 108.703125 315.25 L 76.941406 315.25 Z M 76.941406 213.894531 " fill-opacity="1" fill-rule="nonzero"/></g><g clip-path="url(#9a319248e6)"><path fill="#ffffff" d="M 283.59375 213.894531 L 337.539062 213.894531 L 337.539062 239.515625 L 283.59375 239.515625 Z M 283.59375 213.894531 " fill-opacity="1" fill-rule="nonzero"/></g><path stroke-linecap="butt" transform="matrix(0.62223, 0, 0, 0.62223, 112.787349, 30.876139)" fill="none" stroke-linejoin="miter" d="M 170.112937 325.999265 L 170.112937 243.489831 L 93.23471 243.489831 L 93.23471 325.999265 L 23.387646 325.999265 L 23.387646 108.497792 L 93.23471 108.497792 L 93.23471 187.843203 L 170.112937 187.843203 L 170.112937 108.497792 L 239.960001 108.497792 L 239.960001 325.999265 Z M 170.112937 325.999265 " stroke="#272727" stroke-width="45.050236" stroke-opacity="1" stroke-miterlimit="4"/><g fill="#ffffff" fill-opacity="1"><g transform="translate(112.787349, 233.723114)"><g><path d="M 105.828125 0 L 105.828125 -51.34375 L 58.03125 -51.34375 L 58.03125 0 L 14.5625 0 L 14.5625 -135.34375 L 58.03125 -135.34375 L 58.03125 -85.96875 L 105.828125 -85.96875 L 105.828125 -135.34375 L 149.3125 -135.34375 L 149.3125 0 Z M 105.828125 0 "/></g></g></g><g fill="#ffffff" fill-opacity="1"><g transform="translate(120.419419, 273.4103)"><g><path d="M 2.09375 -28.703125 L 11 -28.703125 C 13.6875 -28.703125 15.828125 -28.128906 17.421875 -26.984375 C 19.023438 -25.835938 19.828125 -23.976562 19.828125 -21.40625 C 19.828125 -18.519531 18.632812 -16.460938 16.25 -15.234375 C 20.332031 -14.515625 22.375 -12.101562 22.375 -8 C 22.375 -5.59375 21.535156 -3.65625 19.859375 -2.1875 C 18.191406 -0.726562 15.898438 0 12.984375 0 L 2.09375 0 Z M 8.625 -17.46875 L 9.15625 -17.46875 C 10.613281 -17.46875 11.703125 -17.722656 12.421875 -18.234375 C 13.140625 -18.742188 13.5 -19.578125 13.5 -20.734375 C 13.5 -22.679688 12.050781 -23.65625 9.15625 -23.65625 L 8.625 -23.65625 Z M 8.625 -5.046875 L 10.6875 -5.046875 C 13.882812 -5.046875 15.484375 -6.113281 15.484375 -8.25 C 15.484375 -9.519531 15.082031 -10.429688 14.28125 -10.984375 C 13.476562 -11.546875 12.28125 -11.828125 10.6875 -11.828125 L 8.625 -11.828125 Z M 8.625 -5.046875 "/></g></g></g><g fill="#ffffff" fill-opacity="1"><g transform="translate(145.845611, 273.4103)"><g><path d="M 0.796875 -14.375 C 0.796875 -18.519531 2.210938 -22.03125 5.046875 -24.90625 C 7.878906 -27.789062 11.289062 -29.234375 15.28125 -29.234375 C 19.289062 -29.234375 22.695312 -27.800781 25.5 -24.9375 C 28.3125 -22.070312 29.71875 -18.550781 29.71875 -14.375 C 29.71875 -10.175781 28.335938 -6.644531 25.578125 -3.78125 C 22.816406 -0.914062 19.382812 0.515625 15.28125 0.515625 C 11.082031 0.515625 7.617188 -0.898438 4.890625 -3.734375 C 2.160156 -6.578125 0.796875 -10.125 0.796875 -14.375 Z M 7.859375 -14.375 C 7.859375 -12.863281 8.085938 -11.488281 8.546875 -10.25 C 9.015625 -9.007812 9.828125 -7.957031 10.984375 -7.09375 C 12.148438 -6.238281 13.582031 -5.8125 15.28125 -5.8125 C 17.707031 -5.8125 19.539062 -6.644531 20.78125 -8.3125 C 22.03125 -9.988281 22.65625 -12.007812 22.65625 -14.375 C 22.65625 -16.71875 22.019531 -18.726562 20.75 -20.40625 C 19.488281 -22.09375 17.664062 -22.9375 15.28125 -22.9375 C 12.914062 -22.9375 11.085938 -22.09375 9.796875 -20.40625 C 8.503906 -18.726562 7.859375 -16.71875 7.859375 -14.375 Z M 7.859375 -14.375 "/></g></g></g><g fill="#ffffff" fill-opacity="1"><g transform="translate(178.610659, 273.4103)"><g><path d="M 8.625 -11.515625 L 8.625 0 L 2.09375 0 L 2.09375 -28.703125 L 8.625 -28.703125 L 8.625 -17.265625 L 17.890625 -17.265625 L 17.890625 -28.703125 L 24.421875 -28.703125 L 24.421875 0 L 17.890625 0 L 17.890625 -11.515625 Z M 8.625 -11.515625 "/></g></g></g><g fill="#ffffff" fill-opacity="1"><g transform="translate(207.375857, 273.4103)"><g><path d="M 16.671875 -28.703125 L 28.25 0 L 21.21875 0 L 19.109375 -5.734375 L 8.171875 -5.734375 L 6.046875 0 L -0.96875 0 L 10.609375 -28.703125 Z M 16.875 -11.484375 L 13.671875 -19.828125 L 13.609375 -19.828125 L 10.40625 -11.484375 Z M 16.875 -11.484375 "/></g></g></g><g fill="#ffffff" fill-opacity="1"><g transform="translate(236.906247, 273.4103)"><g><path d="M 2.09375 -28.703125 L 12.359375 -28.703125 C 15.117188 -28.703125 17.367188 -27.960938 19.109375 -26.484375 C 20.847656 -25.015625 21.71875 -22.914062 21.71875 -20.1875 C 21.71875 -18.070312 21.1875 -16.300781 20.125 -14.875 C 19.070312 -13.445312 17.640625 -12.441406 15.828125 -11.859375 L 25.71875 0 L 17.40625 0 L 8.625 -11.34375 L 8.625 0 L 2.09375 0 Z M 8.625 -15.96875 L 9.390625 -15.96875 C 9.992188 -15.96875 10.503906 -15.976562 10.921875 -16 C 11.335938 -16.03125 11.8125 -16.113281 12.34375 -16.25 C 12.882812 -16.382812 13.316406 -16.578125 13.640625 -16.828125 C 13.960938 -17.085938 14.238281 -17.460938 14.46875 -17.953125 C 14.707031 -18.441406 14.828125 -19.035156 14.828125 -19.734375 C 14.828125 -20.429688 14.707031 -21.019531 14.46875 -21.5 C 14.238281 -21.988281 13.960938 -22.359375 13.640625 -22.609375 C 13.316406 -22.867188 12.882812 -23.066406 12.34375 -23.203125 C 11.8125 -23.347656 11.335938 -23.429688 10.921875 -23.453125 C 10.503906 -23.472656 9.992188 -23.484375 9.390625 -23.484375 L 8.625 -23.484375 Z M 8.625 -15.96875 "/></g></g></g><g fill="#ffffff" fill-opacity="1"><g transform="translate(264.071509, 273.4103)"><g><path d="M 16.671875 -28.703125 L 28.25 0 L 21.21875 0 L 19.109375 -5.734375 L 8.171875 -5.734375 L 6.046875 0 L -0.96875 0 L 10.609375 -28.703125 Z M 16.875 -11.484375 L 13.671875 -19.828125 L 13.609375 -19.828125 L 10.40625 -11.484375 Z M 16.875 -11.484375 "/></g></g></g><g fill="#ffffff" fill-opacity="1"><g transform="translate(58.250275, 202.999443)"><g><path d="M 47.265625 -61.140625 C 50.347656 -61.140625 53.175781 -60.5 55.75 -59.21875 C 58.332031 -57.945312 60.378906 -56.15625 61.890625 -53.84375 C 63.398438 -51.539062 64.15625 -48.96875 64.15625 -46.125 C 64.15625 -38.59375 60.75 -33.851562 53.9375 -31.90625 L 53.9375 -31.546875 C 61.695312 -29.765625 65.578125 -24.671875 65.578125 -16.265625 C 65.578125 -13.066406 64.789062 -10.238281 63.21875 -7.78125 C 61.65625 -5.320312 59.507812 -3.410156 56.78125 -2.046875 C 54.050781 -0.679688 51.0625 0 47.8125 0 L 6.578125 0 L 6.578125 -61.140625 Z M 26.21875 -37.328125 L 39.71875 -37.328125 C 41.019531 -37.328125 42.097656 -37.785156 42.953125 -38.703125 C 43.816406 -39.617188 44.25 -40.757812 44.25 -42.125 L 44.25 -43.015625 C 44.25 -44.316406 43.804688 -45.425781 42.921875 -46.34375 C 42.035156 -47.257812 40.96875 -47.71875 39.71875 -47.71875 L 26.21875 -47.71875 Z M 26.21875 -14.21875 L 41.140625 -14.21875 C 42.441406 -14.21875 43.519531 -14.675781 44.375 -15.59375 C 45.238281 -16.507812 45.671875 -17.648438 45.671875 -19.015625 L 45.671875 -19.90625 C 45.671875 -21.269531 45.238281 -22.410156 44.375 -23.328125 C 43.519531 -24.242188 42.441406 -24.703125 41.140625 -24.703125 L 26.21875 -24.703125 Z M 26.21875 -14.21875 "/></g></g></g><path stroke-linecap="butt" transform="matrix(0.75, 0.000000000000000163, -0.000000000000000163, 0.75, 37.500002, 117.25451)" fill="none" stroke-linejoin="miter" d="M -0.00000271667 1.999195 L 130.994798 1.999195 " stroke="#ffffff" stroke-width="4" stroke-opacity="1" stroke-miterlimit="4"/><path stroke-linecap="butt" transform="matrix(0.251314, 0, 0, 0.251314, 264.314723, 123.569641)" fill="none" stroke-linejoin="miter" d="M 239.964135 238.390235 C 239.964135 268.140108 230.575983 290.802237 211.784136 306.392165 C 193.054461 321.982093 166.413248 329.784829 131.82941 329.784829 C 97.245571 329.784829 70.526641 321.982093 51.641534 306.392165 C 32.803057 290.802237 23.383818 268.140108 23.383818 238.390235 L 23.383818 108.494892 L 93.2354 108.494892 L 93.2354 237.473181 C 93.2354 249.7213 96.499493 259.466948 103.043221 266.725668 C 109.571407 273.984388 119.068362 277.605977 131.518544 277.605977 C 143.968726 277.605977 153.512311 273.922215 160.149299 266.570235 C 166.786287 259.218255 170.112553 249.519237 170.112553 237.473181 L 170.112553 108.494892 L 239.964135 108.494892 Z M 239.964135 238.390235 " stroke="#272727" stroke-width="45.050236" stroke-opacity="1" stroke-miterlimit="4"/><g fill="#ffffff" fill-opacity="1"><g transform="translate(264.314723, 205.498038)"><g><path d="M 60.3125 -22.015625 C 60.3125 -14.546875 57.953125 -8.847656 53.234375 -4.921875 C 48.515625 -1.003906 41.8125 0.953125 33.125 0.953125 C 24.445312 0.953125 17.734375 -1.003906 12.984375 -4.921875 C 8.242188 -8.847656 5.875 -14.546875 5.875 -22.015625 L 5.875 -54.65625 L 23.4375 -54.65625 L 23.4375 -22.25 C 23.4375 -19.175781 24.253906 -16.722656 25.890625 -14.890625 C 27.535156 -13.066406 29.921875 -12.15625 33.046875 -12.15625 C 36.171875 -12.15625 38.566406 -13.082031 40.234375 -14.9375 C 41.910156 -16.789062 42.75 -19.226562 42.75 -22.25 L 42.75 -54.65625 L 60.3125 -54.65625 Z M 60.3125 -22.015625 "/></g></g></g></svg>